<?xml version="1.0" ?><svg height="24px" version="1.1" viewBox="0 0 24 24" width="24px" xmlns="http://www.w3.org/2000/svg" xmlns:xlink="http://www.w3.org/1999/xlink"><title/><desc/><g fill="none" fill-rule="evenodd" id="Action-/-31---Action,-key,-lock,-password,-security-icon" stroke="none" stroke-linecap="round" stroke-linejoin="round" stroke-width="1"><path d="M18.75,9 L17.625,9 L17.625,6.125 C17.625,3.02 15.105,1.5 12,1.5 C8.895,1.5 6.375,3.02 6.375,6.125 L6.375,9 L5.25,9 C4.0125,9 3,9.7625 3,11 L3,20.25 C3,21.4875 4.0125,22.5 5.25,22.5 L18.75,22.5 C19.9875,22.5 21,21.4875 21,20.25 L21,11 C21,9.7625 19.9875,9 18.75,9 Z" id="Path" stroke="#000000" stroke-width="2"/><line id="Path" stroke="#000000" stroke-width="2" x1="6.375" x2="17.625" y1="9" y2="9"/><path d="M12,17.9375 C10.7625,17.9375 9.75,16.925 9.75,15.6875 C9.75,14.45 10.7625,13.4375 12,13.4375 C13.2375,13.4375 14.25,14.45 14.25,15.6875 C14.25,16.925 13.2375,17.9375 12,17.9375 Z" id="Path" stroke="#000000" stroke-width="2"/></g></svg>